<svg xmlns="http://www.w3.org/2000/svg" viewBox="0 0 152.33 152.68"><defs><style>.cls-1{fill:#ffb600;}</style></defs><g id="Layer_2" data-name="Layer 2"><g id="Layer_1-2" data-name="Layer 1"><path class="cls-1" d="M65.06,152.52a1.08,1.08,0,0,1,.35,0c2.2.06,4.4-.08,6.6-.11,1.53,0,3.07,0,4.6-.09,1.27-.07,2.54,0,3.81-.07,2.06-.13,4.13-.06,6.19-.17.33,0,.43-.18.46-.47.19-1.79.43-3.57.64-5.36.25-2.08.49-4.16.76-6.23,0-.41.11-.82.13-1.24a.8.8,0,0,1,.67-.77c2.6-.75,5.2-1.55,7.74-2.52a36.26,36.26,0,0,0,5-2.45c1.35-.75,2.7-1.52,4-2.34a.68.68,0,0,1,.87,0c3.38,2.41,6.75,4.84,10.12,7.25.79.56.65.51,1.21-.09,1.67-1.75,3.32-3.52,5-5.29.72-.76,1.41-1.55,2.17-2.27.27-.25.27-.43,0-.69-1.91-1.86-3.84-3.71-5.79-5.53-.72-.68-1.42-1.38-2.13-2.06-1.07-1-2.14-2-3.2-3.07l-6.3-6-3.62-3.45c-1.41-1.36-2.86-2.69-4.24-4.08-.23-.23-.39-.23-.63,0a43.09,43.09,0,0,1-7.66,5.84,36.3,36.3,0,0,1-14.09,4.86,38.17,38.17,0,0,1-6.32.28,33.32,33.32,0,0,1-12.75-3.06,43.05,43.05,0,0,1-10.11-6.63,32,32,0,0,1-8.35-11.51,39.45,39.45,0,0,1-3-9.53,30.2,30.2,0,0,1-.53-5.28c0-.7,0-1.41,0-2.11A34.36,34.36,0,0,1,37.53,71a36.7,36.7,0,0,1,3.27-9,32.11,32.11,0,0,1,5-7.18l.2-.24c.3-.39.3-.42,0-.77-1.88-1.88-3.83-3.68-5.73-5.53l-3.49-3.34c-1.73-1.66-3.46-3.3-5.17-5C30.19,38.6,28.81,37.3,27.45,36c-2.19-2.1-4.39-4.17-6.54-6.29-.24-.24-.4-.22-.63,0-1.59,1.64-3.14,3.32-4.72,5-.93,1-1.83,2-2.79,2.91-.41.39-.4.4-.06.83,2.61,3.32,5.24,6.63,7.85,9.94.06.08.12.17.19.25a.6.6,0,0,1,.06.83c-.88,1.53-1.68,3.09-2.46,4.66a46,46,0,0,0-2.55,6.61c-.61,1.94-1.24,3.88-1.81,5.84a.83.83,0,0,1-.79.64L4.93,68.47c-1.5.23-3,.49-4.51.69-.14,0-.29.08-.42,0v1.51a.1.1,0,0,1,0,.09,1.2,1.2,0,0,1,0,.38q.21,7.08.4,14.17c.08,2.65.17,5.31.24,8,0,.26.06.35.33.38l5.77.59c2.5.25,5,.52,7.49.76a.45.45,0,0,1,.44.38c.75,2.43,1.53,4.86,2.39,7.26A54.36,54.36,0,0,0,22,112c.51.85.52.85-.08,1.67q-3.73,5.09-7.48,10.16c-.22.29-.18.43.07.67q8.38,8,16.76,16c.23.23.36.21.6,0L42,132.13a.55.55,0,0,1,.73-.07A66.38,66.38,0,0,0,52,136.5a65.88,65.88,0,0,0,8.4,2.26.52.52,0,0,1,.48.5l2,12.94c0,.16,0,.32.08.48h2C64.93,152.59,65,152.55,65.06,152.52Z"/><path class="cls-1" d="M77.61.19a72.23,72.23,0,0,0-13,1.71A78.26,78.26,0,0,0,44.5,9.3a70.12,70.12,0,0,0-12.18,8.18c-1.16,1-2.28,2-3.37,3.07a18.76,18.76,0,0,0-1.69,1.87c-.56.7-1.23,1.31-1.75,2-.31.44-.31.43.09.78.71.62,1.37,1.3,2,2,1,1,2,1.93,3,2.91,2,1.92,4,3.82,6,5.75l3.59,3.41,5.9,5.63,3.55,3.38,6,5.75,3.5,3.32,6,5.72,3.52,3.36q3,2.88,6,5.77c1.16,1.12,2.34,2.22,3.5,3.33l6,5.71c1.14,1.1,2.28,2.18,3.43,3.27q3.08,2.92,6.15,5.87c1.11,1.07,2.24,2.13,3.36,3.2l6.09,5.81,3.55,3.39q3,2.86,6,5.74c1.15,1.11,2.31,2.2,3.47,3.3q3,2.86,6,5.74c1.19,1.15,2.39,2.28,3.59,3.42s2.68,2.53,4,3.83c.16,0,.11-.34.32-.31s.1.26.24.35a33.89,33.89,0,0,0,3.11-3q2.07-2.22,3.94-4.62a70.66,70.66,0,0,0,5.81-8.72,69.78,69.78,0,0,0,4.26-9,68.73,68.73,0,0,0,3.13-10.52c.46-2.17.79-4.36,1-6.55a41.93,41.93,0,0,0,.3-4.19c0-.18-.12-.43.19-.51v-6c-.15-1-.11-2.06-.17-3.08-.64-10.67-2.89-20.89-8.07-30.35A68.64,68.64,0,0,0,135,25.59a105.3,105.3,0,0,0-7.82-8.13,63.28,63.28,0,0,0-13.5-9.2A73.93,73.93,0,0,0,93.12,1.18,67.29,67.29,0,0,0,83.41.07,1,1,0,0,1,82.86,0H78C78,.24,77.75.19,77.61.19Zm-12,7.46c1.42-.34,2.86-.59,4.3-.82.38-.06.53,0,.51.44a43.43,43.43,0,0,1-1.61,9.39c-.62,2.37-1.39,4.69-2.23,7-.11.32-.23.38-.56.29a92.78,92.78,0,0,0-12.35-2.48,85.91,85.91,0,0,0-15.46-.73h-.44A77.5,77.5,0,0,1,65.58,7.65Zm-11,36.78c-.2.24-.32.31-.59,0Q44.93,35.8,35.82,27.14a1.83,1.83,0,0,0-.26-.16l.08-.12a92.8,92.8,0,0,1,12.7,0,88.53,88.53,0,0,1,11.92,1.54c1.2.24,2.39.53,3.58.79.28.06.37.14.23.44A66.94,66.94,0,0,1,54.59,44.43ZM79.26,68.54q-10.17-9.72-20.37-19.4c-.33-.32-.29-.47,0-.79a82.84,82.84,0,0,0,8.56-12.51c.85-1.47,1.65-3,2.39-4.49.13-.26.25-.32.53-.22A85.6,85.6,0,0,1,98.17,47.25L99,48l.18.2-.25.28q-4.82,5-9.62,10.1t-9.47,10C79.63,68.74,79.52,68.79,79.26,68.54Zm27.36,22.81a18.79,18.79,0,0,0-1.37,1.31c-.24.26-.37.3-.65,0q-4.83-4.64-9.68-9.24-5.28-5-10.59-10.07c-.27-.26-.3-.39,0-.68Q91.62,65,98.9,57.36l4.39-4.63c.11-.11.21-.24.34-.37,1.67,1.67,3.25,3.39,4.77,5.16a81.89,81.89,0,0,1,13.68,22.66c.15.35.11.51-.24.71A88.57,88.57,0,0,0,106.62,91.35Zm21.23,22c0,.43,0,.87-.08,1.39L119.66,107q-5.1-4.86-10.2-9.71c-.3-.28-.27-.4,0-.67a64.57,64.57,0,0,1,14.48-10.16c.29-.16.37-.1.46.19A81.28,81.28,0,0,1,127.09,99,87.11,87.11,0,0,1,127.85,113.36Zm18.28-33.87c-.16,1.29-.28,2.58-.47,3.86a68.66,68.66,0,0,1-3.61,14.34,51.71,51.71,0,0,1-7.7,14.12l-.56.66c0-1.36,0-2.67,0-4a76.6,76.6,0,0,0-3.41-21.83c-.25-.81-.5-1.63-.77-2.44-.09-.26-.07-.38.21-.49a67.41,67.41,0,0,1,14.7-4.39c.41-.07.82-.11,1.23-.18S146.17,79.18,146.13,79.49ZM127.64,27.08c.28-.29.4-.29.67,0a69,69,0,0,1,14.37,23.57A63.85,63.85,0,0,1,146,64.55c.26,2.11.42,4.23.5,6.36,0,.6,0,1.21,0,1.81,0,.26-.05.37-.35.42a91.65,91.65,0,0,0-12.36,2.79c-2,.6-4,1.28-5.92,2.07-.29.12-.4.11-.53-.21a93.8,93.8,0,0,0-15.37-25.1c-1.22-1.43-2.49-2.8-3.8-4.15-.45-.45-.44-.45,0-.9Q117.89,37.36,127.64,27.08ZM80.06,6.2a65,65,0,0,1,43.22,16c.23.2.33.31.06.6q-9.86,10.31-19.67,20.66c-.28.29-.42.35-.74,0a77.2,77.2,0,0,0-28.5-16.94c-.62-.22-1.25-.44-1.88-.64-.27-.08-.34-.18-.23-.46A70.86,70.86,0,0,0,74.75,17,90,90,0,0,0,76.36,8a11.23,11.23,0,0,0,0-1.42c0-.24.08-.33.33-.33Z"/></g></g></svg>